<?xml version="1.0" encoding="UTF-8" standalone="no"?>
<!DOCTYPE svg PUBLIC "-//W3C//DTD SVG 1.1//EN"
 "http://www.w3.org/Graphics/SVG/1.1/DTD/svg11.dtd">
<!-- Generated by graphviz version 2.40.1 (20161225.0304)
 -->
<!-- Title: nodes Pages: 1 -->
<svg width="279pt" height="422pt"
 viewBox="0.00 0.00 278.77 421.60" xmlns="http://www.w3.org/2000/svg" xmlns:xlink="http://www.w3.org/1999/xlink">
<g id="graph0" class="graph" transform="scale(1 1) rotate(0) translate(4 417.6)">
<title>nodes</title>
<polygon fill="#ffffff" stroke="transparent" points="-4,4 -4,-417.6 274.7698,-417.6 274.7698,4 -4,4"/>
<!-- 0 -->
<g id="node1" class="node">
<title>0</title>
<polygon fill="none" stroke="#000000" points="204.5047,-413.6 123.7111,-413.6 123.7111,-377.6 204.5047,-377.6 204.5047,-413.6"/>
<text text-anchor="middle" x="164.1079" y="-391.4" font-family="Times,serif" font-size="14.00" fill="#000000"> X3 &lt;= 0.8 </text>
</g>
<!-- 1 -->
<g id="node2" class="node">
<title>1</title>
<polygon fill="none" stroke="#000000" points="153.1643,-330.4 61.0515,-330.4 61.0515,-294.4 153.1643,-294.4 153.1643,-330.4"/>
<text text-anchor="middle" x="107.1079" y="-308.2" font-family="Times,serif" font-size="14.00" fill="#000000"> X3 &lt;= &#45;0.76 </text>
</g>
<!-- 0&#45;&gt;1 -->
<g id="edge1" class="edge">
<title>0&#45;&gt;1</title>
<path fill="none" stroke="#000000" d="M151.7397,-377.5468C143.9716,-366.2081 133.8193,-351.3892 125.1603,-338.7502"/>
<polygon fill="#000000" stroke="#000000" points="127.9912,-336.6895 119.4519,-330.4179 122.2164,-340.6458 127.9912,-336.6895"/>
<text text-anchor="middle" x="114.8595" y="-350.7925" font-family="Times,serif" font-size="14.00" fill="#000000">True</text>
</g>
<!-- 2 -->
<g id="node3" class="node">
<title>2</title>
<polygon fill="#c1b2ff" stroke="#c1b2ff" points="270.9322,-341.8014 171.2836,-341.8014 171.2836,-282.9986 270.9322,-282.9986 270.9322,-341.8014"/>
<text text-anchor="middle" x="221.1079" y="-325" font-family="Times,serif" font-size="14.00" fill="#000000">size = &#160;489 </text>
<text text-anchor="middle" x="221.1079" y="-308.2" font-family="Times,serif" font-size="14.00" fill="#000000"> avg_Y = 1.16</text>
<text text-anchor="middle" x="221.1079" y="-291.4" font-family="Times,serif" font-size="14.00" fill="#000000">avg_W = 0.31 </text>
</g>
<!-- 0&#45;&gt;2 -->
<g id="edge2" class="edge">
<title>0&#45;&gt;2</title>
<path fill="none" stroke="#000000" d="M176.4761,-377.5468C181.9967,-369.4886 188.7216,-359.6726 195.2588,-350.1306"/>
<polygon fill="#000000" stroke="#000000" points="198.1559,-352.0946 200.9203,-341.8668 192.3811,-348.1383 198.1559,-352.0946"/>
<text text-anchor="middle" x="205.5127" y="-362.2413" font-family="Times,serif" font-size="14.00" fill="#000000">False</text>
</g>
<!-- 3 -->
<g id="node4" class="node">
<title>3</title>
<polygon fill="#c1b2ff" stroke="#c1b2ff" points="101.9322,-247.4014 2.2836,-247.4014 2.2836,-188.5986 101.9322,-188.5986 101.9322,-247.4014"/>
<text text-anchor="middle" x="52.1079" y="-230.6" font-family="Times,serif" font-size="14.00" fill="#000000">size = &#160;560 </text>
<text text-anchor="middle" x="52.1079" y="-213.8" font-family="Times,serif" font-size="14.00" fill="#000000"> avg_Y = 3.14</text>
<text text-anchor="middle" x="52.1079" y="-197" font-family="Times,serif" font-size="14.00" fill="#000000">avg_W = 0.74 </text>
</g>
<!-- 1&#45;&gt;3 -->
<g id="edge3" class="edge">
<title>1&#45;&gt;3</title>
<path fill="none" stroke="#000000" d="M96.5033,-294.1987C90.2134,-283.4029 81.9981,-269.3025 74.3472,-256.1707"/>
<polygon fill="#000000" stroke="#000000" points="77.2295,-254.1652 69.1712,-247.2868 71.1812,-257.6892 77.2295,-254.1652"/>
</g>
<!-- 4 -->
<g id="node5" class="node">
<title>4</title>
<polygon fill="none" stroke="#000000" points="207.0046,-236 119.2112,-236 119.2112,-200 207.0046,-200 207.0046,-236"/>
<text text-anchor="middle" x="163.1079" y="-213.8" font-family="Times,serif" font-size="14.00" fill="#000000"> X3 &lt;= 0.34 </text>
</g>
<!-- 1&#45;&gt;4 -->
<g id="edge4" class="edge">
<title>1&#45;&gt;4</title>
<path fill="none" stroke="#000000" d="M117.9053,-294.1987C126.1947,-280.2251 137.7684,-260.7152 147.1293,-244.9353"/>
<polygon fill="#000000" stroke="#000000" points="150.2518,-246.5317 152.3437,-236.1454 144.2314,-242.9602 150.2518,-246.5317"/>
</g>
<!-- 5 -->
<g id="node6" class="node">
<title>5</title>
<polygon fill="none" stroke="#000000" points="152.1643,-141.6 60.0515,-141.6 60.0515,-105.6 152.1643,-105.6 152.1643,-141.6"/>
<text text-anchor="middle" x="106.1079" y="-119.4" font-family="Times,serif" font-size="14.00" fill="#000000"> X3 &lt;= &#45;0.03 </text>
</g>
<!-- 4&#45;&gt;5 -->
<g id="edge5" class="edge">
<title>4&#45;&gt;5</title>
<path fill="none" stroke="#000000" d="M152.1177,-199.7987C143.6803,-185.8251 131.8999,-166.3152 122.3718,-150.5353"/>
<polygon fill="#000000" stroke="#000000" points="125.2295,-148.4968 117.0643,-141.7454 119.2371,-152.115 125.2295,-148.4968"/>
</g>
<!-- 6 -->
<g id="node7" class="node">
<title>6</title>
<polygon fill="#c1b2ff" stroke="#c1b2ff" points="269.9322,-153.0014 170.2836,-153.0014 170.2836,-94.1986 269.9322,-94.1986 269.9322,-153.0014"/>
<text text-anchor="middle" x="220.1079" y="-136.2" font-family="Times,serif" font-size="14.00" fill="#000000">size = &#160;406 </text>
<text text-anchor="middle" x="220.1079" y="-119.4" font-family="Times,serif" font-size="14.00" fill="#000000"> avg_Y = 0.23</text>
<text text-anchor="middle" x="220.1079" y="-102.6" font-family="Times,serif" font-size="14.00" fill="#000000">avg_W = 0.39 </text>
</g>
<!-- 4&#45;&gt;6 -->
<g id="edge6" class="edge">
<title>4&#45;&gt;6</title>
<path fill="none" stroke="#000000" d="M174.0981,-199.7987C180.6167,-189.0029 189.1307,-174.9025 197.0599,-161.7707"/>
<polygon fill="#000000" stroke="#000000" points="200.2513,-163.2564 202.4242,-152.8868 194.259,-159.6381 200.2513,-163.2564"/>
</g>
<!-- 7 -->
<g id="node8" class="node">
<title>7</title>
<polygon fill="#c1b2ff" stroke="#c1b2ff" points="96.3239,-58.6014 -.1081,-58.6014 -.1081,.2014 96.3239,.2014 96.3239,-58.6014"/>
<text text-anchor="middle" x="48.1079" y="-41.8" font-family="Times,serif" font-size="14.00" fill="#000000">size = &#160;674 </text>
<text text-anchor="middle" x="48.1079" y="-25" font-family="Times,serif" font-size="14.00" fill="#000000"> avg_Y = 0.25</text>
<text text-anchor="middle" x="48.1079" y="-8.2" font-family="Times,serif" font-size="14.00" fill="#000000">avg_W = 0.6 </text>
</g>
<!-- 5&#45;&gt;7 -->
<g id="edge7" class="edge">
<title>5&#45;&gt;7</title>
<path fill="none" stroke="#000000" d="M94.9249,-105.3987C88.2919,-94.6029 79.6285,-80.5025 71.5603,-67.3707"/>
<polygon fill="#000000" stroke="#000000" points="74.319,-65.1748 66.1019,-58.4868 68.3547,-68.8393 74.319,-65.1748"/>
</g>
<!-- 8 -->
<g id="node9" class="node">
<title>8</title>
<polygon fill="#c1b2ff" stroke="#c1b2ff" points="215.4844,-58.6014 114.7314,-58.6014 114.7314,.2014 215.4844,.2014 215.4844,-58.6014"/>
<text text-anchor="middle" x="165.1079" y="-41.8" font-family="Times,serif" font-size="14.00" fill="#000000">size = &#160;371 </text>
<text text-anchor="middle" x="165.1079" y="-25" font-family="Times,serif" font-size="14.00" fill="#000000"> avg_Y = &#45;0.05</text>
<text text-anchor="middle" x="165.1079" y="-8.2" font-family="Times,serif" font-size="14.00" fill="#000000">avg_W = 0.46 </text>
</g>
<!-- 5&#45;&gt;8 -->
<g id="edge8" class="edge">
<title>5&#45;&gt;8</title>
<path fill="none" stroke="#000000" d="M117.4837,-105.3987C124.296,-94.4991 133.2135,-80.2311 141.4878,-66.9922"/>
<polygon fill="#000000" stroke="#000000" points="144.4716,-68.8218 146.8037,-58.4868 138.5356,-65.1117 144.4716,-68.8218"/>
</g>
</g>
</svg>
